<svg width="166" height="50" viewBox="0 0 166 50" fill="none" xmlns="http://www.w3.org/2000/svg">
<path d="M10.3737 0.0142043C4.63915 0.0142043 0 4.61648 0 10.3054V39.6946C0 45.3835 4.63915 49.9858 10.3737 49.9858C16.101 49.9858 20.7402 45.3835 20.7402 39.6946V10.3054C20.776 4.61648 16.101 0.0142043 10.3737 0.0142043ZM49.248 25.2273L44.0361 30.3977L41.9099 32.5071L41.8168 32.6278C37.9079 36.6264 37.9079 42.9759 41.8812 47.0384C45.9405 51.0085 52.4625 50.9801 56.5003 46.9744C60.5595 42.9474 60.5595 36.4489 56.5003 32.4148L49.248 25.2273ZM41.0006 32.0526L43.1269 29.9503L55.5839 17.5852C59.6503 13.5511 59.6503 7.05256 55.5839 3.02557C51.5246 -1.00852 44.974 -1.00852 40.9076 3.02557L26.3243 17.4929C22.2579 21.527 22.2579 28.0256 26.353 32.0881L40.0914 45.5895C36.9987 41.5909 37.2421 35.8452 40.8789 32.1449L41.0006 32.0526ZM133.462 23.9915L132.13 21.3423C131.98 21.0156 131.793 20.7741 131.55 20.5895C131.342 20.4119 131.07 20.2628 130.762 20.1989L133.34 16.7756C133.376 16.7401 133.376 16.7116 133.376 16.6832C133.376 16.6548 133.34 16.6548 133.283 16.6548H133.039C132.946 16.6548 132.917 16.6548 132.86 16.6832C132.824 16.7116 132.796 16.7401 132.738 16.7756L130.218 20.142C130.19 20.142 130.125 20.142 130.097 20.142C130.039 20.142 130.004 20.142 129.946 20.142H128.615V16.7756C128.615 16.7116 128.615 16.6832 128.579 16.6548C128.55 16.6193 128.522 16.6193 128.493 16.6193H128.278C128.214 16.6193 128.185 16.6193 128.157 16.6548C128.128 16.6832 128.128 16.7116 128.128 16.7756V23.9915C128.128 24.0554 128.128 24.0838 128.157 24.1122C128.185 24.1406 128.214 24.1406 128.278 24.1406H128.493C128.55 24.1406 128.579 24.1406 128.579 24.1122C128.615 24.0838 128.615 24.0554 128.615 23.9915V20.5611H129.975C130.397 20.5611 130.762 20.6534 131.006 20.8026C131.249 20.9517 131.464 21.2216 131.643 21.5554L132.889 24.0199C132.917 24.0838 132.946 24.1122 132.975 24.1122C133.01 24.1406 133.068 24.1406 133.161 24.1406H133.376C133.433 24.1406 133.462 24.1122 133.462 24.1122C133.497 24.0838 133.497 24.0554 133.462 23.9915ZM144.107 20.7741H141.623V17.0739H144.107C144.687 17.0739 145.167 17.2514 145.503 17.5568C145.84 17.8835 146.019 18.3381 146.019 18.9062C146.019 19.4815 145.84 19.929 145.503 20.2628C145.167 20.5895 144.687 20.7741 144.107 20.7741ZM144.136 16.6193H141.258C141.193 16.6193 141.165 16.6193 141.136 16.6548C141.108 16.6832 141.108 16.7116 141.108 16.7756V23.9915C141.108 24.0554 141.108 24.0838 141.136 24.1122C141.165 24.1406 141.193 24.1406 141.258 24.1406H141.473C141.53 24.1406 141.559 24.1406 141.559 24.1122C141.594 24.0838 141.594 24.0554 141.594 23.9915V21.2216H144.107C144.837 21.2216 145.41 21.0156 145.84 20.625C146.262 20.2344 146.477 19.6591 146.477 18.9418C146.477 18.2173 146.262 17.642 145.84 17.2514C145.439 16.8324 144.866 16.6548 144.136 16.6193ZM152.748 19.0909V21.6761C152.748 22.3651 152.541 22.8764 152.147 23.267C151.753 23.6293 151.145 23.8423 150.386 23.8423C149.598 23.8423 149.018 23.6648 148.596 23.267C148.202 22.9119 147.988 22.3651 147.988 21.6761V19.0909C147.988 18.3949 148.202 17.8835 148.596 17.4929C148.99 17.1307 149.598 16.9247 150.386 16.9247C151.145 16.9247 151.753 17.1307 152.147 17.4929C152.569 17.8835 152.748 18.4304 152.748 19.0909ZM147.501 19.0909V21.6761C147.501 22.4858 147.744 23.1179 148.231 23.6009C148.718 24.0554 149.448 24.2898 150.386 24.2898C151.324 24.2898 152.025 24.0554 152.505 23.6009C152.992 23.1463 153.235 22.5213 153.235 21.6761V19.0909C153.235 18.2741 152.992 17.642 152.505 17.1662C152.025 16.7116 151.324 16.4702 150.386 16.4702C149.448 16.4702 148.718 16.7116 148.231 17.1662C147.744 17.642 147.501 18.2741 147.501 19.0909ZM157.753 20.7741H155.268V17.0739H157.753C158.333 17.0739 158.819 17.2514 159.149 17.5568C159.485 17.8835 159.664 18.3381 159.664 18.9062C159.664 19.4815 159.485 19.929 159.149 20.2628C158.784 20.5895 158.333 20.7741 157.753 20.7741ZM157.781 16.6193H154.903C154.846 16.6193 154.81 16.6193 154.782 16.6548C154.753 16.6832 154.753 16.7116 154.753 16.7756V23.9915C154.753 24.0554 154.753 24.0838 154.782 24.1122C154.81 24.1406 154.846 24.1406 154.903 24.1406H155.118C155.175 24.1406 155.204 24.1406 155.204 24.1122C155.24 24.0838 155.24 24.0554 155.24 23.9915V21.2216H157.753C158.483 21.2216 159.056 21.0156 159.485 20.625C159.908 20.2344 160.122 19.6591 160.122 18.9418C160.122 18.2173 159.908 17.642 159.485 17.2514C159.091 16.8324 158.511 16.6548 157.781 16.6193ZM165.878 16.6193H160.759C160.695 16.6193 160.666 16.6193 160.638 16.6548C160.602 16.6832 160.602 16.7116 160.602 16.7756V16.9531C160.602 17.0099 160.602 17.0455 160.638 17.0455C160.666 17.0739 160.695 17.0739 160.759 17.0739H163.065V23.9915C163.065 24.0554 163.065 24.0838 163.093 24.1122C163.122 24.1406 163.151 24.1406 163.215 24.1406H163.423C163.487 24.1406 163.516 24.1406 163.516 24.1122C163.544 24.0838 163.544 24.0554 163.544 23.9915V17.0739H165.85C165.914 17.0739 165.943 17.0739 165.971 17.0455C166 17.0099 166 16.9815 166 16.9531V16.7756C166 16.7116 166 16.6832 165.971 16.6548C165.971 16.6548 165.943 16.6193 165.878 16.6193ZM140.134 16.6193H139.862C139.805 16.6193 139.74 16.6193 139.711 16.6548C139.683 16.6548 139.647 16.7116 139.618 16.7401L137.106 20.5327L134.586 16.7401C134.557 16.6832 134.528 16.6548 134.492 16.6548C134.464 16.6548 134.407 16.6193 134.342 16.6193H134.041C133.977 16.6193 133.948 16.6193 133.948 16.6548C133.948 16.6832 133.948 16.7116 133.948 16.7401L136.798 20.9517L134.979 23.9631C134.951 24.0199 134.951 24.0554 134.979 24.0838C135.008 24.1122 135.044 24.1122 135.101 24.1122H135.402C135.466 24.1122 135.495 24.1122 135.495 24.0838C135.523 24.0554 135.523 24.0199 135.559 23.9631L137.342 21.0156L140.227 16.7401C140.256 16.7116 140.256 16.6832 140.227 16.6548C140.227 16.6548 140.198 16.6193 140.134 16.6193ZM68.1698 26.7614H71.9928C71.9928 26.7614 72.8733 26.7898 72.995 26.7898C73.2385 26.7898 73.3888 26.8182 73.5105 26.8821C73.6036 26.9389 73.6608 27.0881 73.6608 27.3011V34.6733C73.6608 34.7656 73.6322 34.8509 73.6036 34.9148C73.5678 34.9716 73.5391 35 73.4819 35.0355C73.4174 35.0639 73.3602 35.0923 73.2671 35.0923C73.174 35.0923 73.0881 35.0923 72.995 35.0923C72.8733 35.0923 72.7516 35.0923 72.6299 35.0639C72.5082 35.0355 72.4152 35.0355 72.2934 34.9716C72.2075 34.9432 72.1145 34.8864 72.0572 34.8224C71.9928 34.7656 71.9641 34.6733 71.9641 34.581V28.1747H68.1411V34.6094C68.1411 34.7017 68.1125 34.794 68.048 34.8508C67.9908 34.9148 67.8977 34.9716 67.8118 35.0071C67.7187 35.0355 67.597 35.0639 67.4753 35.0639C67.3536 35.0639 67.2605 35.0923 67.1388 35.0923C67.0171 35.0923 66.9312 35.0923 66.8381 35.0923C66.7451 35.0923 66.6878 35.0639 66.6234 35.0355C66.5661 35.0071 66.5375 34.9716 66.5017 34.9148C66.473 34.8509 66.473 34.794 66.473 34.7017V27.3011C66.473 27.1236 66.5375 27.0028 66.6234 26.9105C66.7451 26.8182 66.9026 26.7898 67.1388 26.7898C67.2963 26.7898 68.1698 26.7614 68.1698 26.7614ZM78.8441 28.1108C78.4217 28.1108 78.0566 28.1747 77.7845 28.267C77.5125 28.3523 77.3335 28.5085 77.176 28.7145C77.0257 28.9276 76.9398 29.1974 76.904 29.4957C76.8467 29.8295 76.8467 30.2202 76.8467 30.6676V31.0298C76.8467 31.4844 76.8753 31.875 76.904 32.2017C76.9684 32.5355 77.0615 32.8054 77.176 32.9901C77.3335 33.196 77.5125 33.3523 77.7845 33.4375C78.0566 33.5298 78.3931 33.5866 78.8441 33.5866H78.9085C79.3309 33.5866 79.696 33.5298 79.9681 33.4375C80.2401 33.3523 80.4263 33.196 80.5766 32.9901C80.727 32.777 80.82 32.5071 80.8487 32.2017C80.9059 31.875 80.9059 31.4844 80.9059 31.0298V30.6676C80.9059 30.2202 80.8773 29.8295 80.8487 29.4957C80.7842 29.169 80.6983 28.8991 80.5766 28.7145C80.4263 28.5085 80.2401 28.3523 79.9681 28.267C79.696 28.1747 79.3596 28.1108 78.9085 28.1108H78.8441ZM78.8441 35.0355C78.2714 35.0355 77.8132 34.9716 77.3908 34.8864C76.997 34.794 76.6605 34.6449 76.3885 34.4602C76.1164 34.2827 75.9088 34.0696 75.7227 33.7997C75.5723 33.5582 75.422 33.2599 75.3576 32.9545C75.2717 32.6562 75.2072 32.3224 75.1786 31.9673C75.15 31.6051 75.15 31.2429 75.15 30.8807V30.8523C75.15 30.4901 75.15 30.0994 75.1786 29.7656C75.2072 29.4105 75.2717 29.0767 75.3576 28.7784C75.4506 28.473 75.5723 28.1747 75.7227 27.9332C75.873 27.6918 76.1164 27.4503 76.3885 27.2727C76.6605 27.0881 76.997 26.9389 77.3908 26.8537C77.7845 26.7614 78.2714 26.6974 78.8441 26.6974H78.9085C79.4813 26.6974 79.9395 26.7614 80.3618 26.8537C80.7556 26.9389 81.0921 27.0881 81.3641 27.2727C81.6362 27.4503 81.851 27.6634 82.0299 27.9332C82.1803 28.1747 82.3306 28.473 82.3951 28.7784C82.4881 29.0767 82.5454 29.4105 82.574 29.7656C82.6098 30.1278 82.6098 30.4901 82.6098 30.8523V30.8807C82.6098 31.2429 82.6098 31.6335 82.574 31.9673C82.5454 32.3224 82.4881 32.6562 82.3951 32.9545C82.302 33.2599 82.1803 33.5582 82.0299 33.7997C81.8796 34.0412 81.6362 34.2827 81.3641 34.4602C81.0921 34.6449 80.7556 34.794 80.3618 34.8864C79.9681 34.9716 79.4813 35.0355 78.9085 35.0355H78.8441ZM84.8793 34.2543C84.822 34.4602 84.7289 34.6094 84.6717 34.7301C84.6072 34.8509 84.5213 34.9148 84.4283 34.9716C84.3352 35.0355 84.2421 35.0639 84.1276 35.0639C84.0059 35.0639 83.8842 35.0923 83.7267 35.0923C83.6121 35.0923 83.519 35.0639 83.426 35.0355C83.3329 35 83.247 34.9432 83.2112 34.8508C83.1539 34.7656 83.1253 34.6449 83.1253 34.4886C83.1253 34.3395 83.1539 34.1619 83.247 33.9489L85.4305 27.7557C85.5165 27.4858 85.6382 27.2727 85.7599 27.1236C85.8816 26.9744 86.0033 26.8821 86.1536 26.8182C86.2753 26.7614 86.4257 26.733 86.5832 26.6974C86.7335 26.6974 86.8839 26.6974 87.0056 26.6974H87.2776C87.428 26.6974 87.5783 26.6974 87.7 26.6974C87.8503 26.6974 87.9721 26.7614 88.1296 26.8182C88.2513 26.8821 88.4016 27.0028 88.5233 27.1236C88.645 27.2727 88.7667 27.4858 88.8526 27.7557L91.0362 33.9489C91.1006 34.1619 91.1579 34.3395 91.1293 34.4957C91.1293 34.6449 91.1006 34.7656 91.0362 34.8508C90.9789 34.9432 90.9145 35.0071 90.8286 35.0355C90.7355 35.0639 90.6138 35.0923 90.5207 35.0923C90.3704 35.0923 90.2487 35.0923 90.127 35.0639C90.0053 35.0639 89.9194 35.0355 89.8263 34.9716C89.7332 34.9148 89.6401 34.8224 89.5829 34.7301C89.5184 34.6094 89.4325 34.4602 89.3681 34.2543L87.3349 28.3239C87.3063 28.267 87.3063 28.2315 87.2776 28.1747C87.249 28.1463 87.249 28.1108 87.2203 28.1108H87.1559H87.1273H87.0986H87.0342C87.0056 28.1108 86.9769 28.1463 86.9769 28.1747C86.9411 28.2031 86.9411 28.267 86.9125 28.3239L84.8793 34.2543ZM101.775 30.1562H103.529H104.682C104.989 30.1562 105.197 30.1562 105.319 30.1562C105.476 30.1562 105.562 30.1562 105.591 30.1562V27.2443C105.591 27.152 105.627 27.0881 105.684 27.0028C105.748 26.9389 105.834 26.8821 105.927 26.8182C106.02 26.7614 106.142 26.733 106.264 26.6974C106.385 26.669 106.507 26.669 106.622 26.669C106.865 26.669 107.023 26.6974 107.137 26.7614C107.259 26.8182 107.295 26.9744 107.295 27.1804V34.6094C107.295 34.7017 107.259 34.794 107.23 34.8508C107.202 34.9148 107.137 34.9432 107.109 34.9716C107.051 35.0071 106.987 35.0355 106.901 35.0355C106.808 35.0355 106.715 35.0355 106.622 35.0355C106.507 35.0355 106.385 35.0355 106.292 35.0071C106.171 34.9716 106.078 34.9716 105.956 34.9148C105.87 34.8864 105.777 34.8224 105.713 34.7656C105.655 34.7017 105.627 34.6094 105.627 34.5241V31.5128H101.804V34.5241C101.804 34.6094 101.775 34.7017 101.711 34.7656C101.653 34.8224 101.56 34.8864 101.467 34.9148C101.381 34.9432 101.26 34.9716 101.138 34.9716C101.016 34.9716 100.923 35.0071 100.801 35.0071C100.68 35.0071 100.594 35.0071 100.501 35.0071C100.408 35.0071 100.35 34.9716 100.286 34.9432C100.229 34.9148 100.2 34.8864 100.164 34.8224C100.136 34.7656 100.136 34.7017 100.136 34.6094V27.2088C100.136 27.0312 100.2 26.9105 100.286 26.8182C100.408 26.733 100.558 26.6974 100.801 26.6974C100.923 26.6974 101.045 26.6974 101.166 26.733C101.288 26.7614 101.381 26.7898 101.503 26.8182C101.589 26.8537 101.682 26.9105 101.746 27.0028C101.804 27.0597 101.832 27.152 101.832 27.2727V30.1562H101.775ZM110.631 32.0526H113.509L112.235 28.3239C112.206 28.267 112.206 28.2315 112.177 28.1747C112.141 28.1463 112.141 28.1108 112.113 28.1108H112.027C111.991 28.1108 111.962 28.1463 111.962 28.1747C111.934 28.2031 111.934 28.267 111.905 28.3239L110.631 32.0526ZM113.967 33.3807H110.173L109.872 34.2543C109.808 34.4602 109.722 34.6094 109.657 34.7301C109.6 34.8509 109.507 34.9148 109.414 34.9716C109.328 35.0355 109.235 35.0639 109.113 35.0639C108.991 35.0639 108.87 35.0923 108.719 35.0923C108.598 35.0923 108.505 35.0639 108.412 35.0355C108.326 35 108.233 34.9432 108.204 34.8508C108.139 34.7656 108.111 34.6449 108.111 34.4886C108.111 34.3395 108.139 34.1619 108.233 33.9489L110.416 27.7841C110.509 27.5142 110.631 27.3011 110.753 27.152C110.874 27.0028 110.996 26.9105 111.146 26.8537C111.268 26.7898 111.418 26.7614 111.569 26.733C111.719 26.733 111.869 26.733 111.991 26.733H112.206C112.356 26.733 112.507 26.733 112.628 26.733C112.779 26.733 112.9 26.7898 113.058 26.8537C113.172 26.9105 113.33 27.0312 113.452 27.152C113.573 27.3011 113.688 27.5142 113.781 27.7841L115.964 33.9489C116.029 34.1619 116.086 34.3395 116.086 34.4957C116.086 34.6449 116.058 34.7656 115.993 34.8508C115.936 34.9432 115.871 35.0071 115.785 35.0355C115.692 35.0639 115.599 35.0923 115.478 35.0923C115.327 35.0923 115.206 35.0923 115.084 35.0639C114.962 35.0639 114.876 35.0355 114.783 34.9716C114.69 34.9148 114.604 34.8224 114.54 34.7301C114.483 34.6094 114.418 34.4602 114.325 34.2543L113.967 33.3807ZM96.7421 28.1747V30.5824H95.2529C94.8878 30.5824 94.5585 30.554 94.3437 30.4901C94.1003 30.4332 93.9213 30.3693 93.7996 30.277C93.6779 30.1918 93.5849 30.071 93.5276 29.9219C93.4632 29.7656 93.4345 29.5597 93.4345 29.375C93.4345 29.1335 93.4632 28.9844 93.5276 28.8352C93.5849 28.6861 93.6779 28.5653 93.7996 28.473C93.95 28.3878 94.1003 28.2955 94.3437 28.267C94.5871 28.2031 94.9165 28.1747 95.2816 28.1747H96.7421ZM96.7421 32.0241V34.6733C96.7421 34.7656 96.7707 34.8509 96.7993 34.9148C96.8638 34.9716 96.921 35.0071 96.9783 35.0355C97.0714 35.0639 97.1358 35.0923 97.2575 35.0923C97.3434 35.0923 97.4651 35.0923 97.5582 35.0923C97.6799 35.0923 97.773 35.0923 97.8947 35.0923C97.9806 35.0923 98.0737 35.0639 98.1667 35.0355C98.2526 35.0071 98.3171 34.9716 98.3457 34.9148C98.3743 34.8509 98.4101 34.794 98.4101 34.7017V27.5142V27.4219C98.3744 27.3011 98.3743 27.2443 98.3457 27.152C98.3171 27.0881 98.2526 27.0028 98.1954 26.9389C98.1309 26.8821 98.045 26.8182 97.952 26.7898C97.8589 26.7614 97.7085 26.733 97.5582 26.733H95.3747H94.7375C94.5585 26.733 94.129 26.7898 93.8569 26.8537C93.5849 26.9105 93.3128 27.0028 93.0694 27.1236C92.826 27.2443 92.5826 27.3935 92.375 27.5994C92.1602 27.8125 92.0098 28.054 91.8881 28.3239C91.7664 28.6222 91.702 28.956 91.702 29.375C91.702 29.7372 91.7378 30.0426 91.8237 30.3125C91.9168 30.5824 92.0385 30.7884 92.1888 30.973C92.3392 31.1506 92.5253 31.2997 92.7043 31.456C92.9191 31.5767 93.1338 31.6903 93.3414 31.7543L91.7378 34.4602C91.6734 34.5526 91.6734 34.6094 91.6734 34.7017C91.6734 34.7656 91.702 34.8224 91.7664 34.8864C91.8237 34.9432 91.8881 34.9716 91.9812 35C92.0671 35.0355 92.1602 35.0639 92.2533 35.0923C92.3392 35.1207 92.4322 35.1207 92.5253 35.1207C92.6184 35.1207 92.6756 35.1207 92.7401 35.1207C92.8904 35.1207 93.0121 35.0923 93.1625 35.0355C93.3128 34.9716 93.4059 34.8864 93.4918 34.7656L95.074 32.0241H95.3174H95.8901H96.7421ZM76.1809 20.4759C76.2668 20.4759 76.3599 20.4759 76.4816 20.4759C76.6033 20.4759 76.725 20.4759 76.8467 20.4759H77.2118H77.5411H77.6056C77.9993 20.4759 78.3 20.4403 78.5434 20.3835C78.7868 20.3196 78.9658 20.2628 79.0875 20.1705C79.2092 20.0781 79.3023 19.9645 79.3309 19.8082C79.3596 19.6591 79.3954 19.5099 79.3954 19.3324V19.2116C79.3954 19.027 79.3596 18.8778 79.3309 18.7287C79.3023 18.5795 79.2092 18.4588 79.0875 18.3665C78.9658 18.2741 78.7868 18.1889 78.572 18.125C78.3644 18.0682 78.0566 18.0327 77.6915 18.0327C77.6628 18.0327 77.6342 18.0327 77.6056 18.0327C77.5769 18.0327 77.5769 18.0327 77.5411 18.0327H76.1809V20.4759ZM77.5125 16.6193C77.7559 16.6193 77.9993 16.6193 78.2427 16.6548C78.5148 16.6832 78.7582 16.7116 79.0302 16.7756C79.3023 16.8324 79.5457 16.9247 79.7891 17.0455C80.0325 17.1662 80.2401 17.3153 80.4263 17.4929C80.6053 17.6776 80.7556 17.919 80.8773 18.2173C80.999 18.4872 81.0276 18.8494 81.0276 19.2401V19.2685C81.0276 19.6591 80.9704 19.9929 80.8773 20.2912C80.7842 20.5611 80.6339 20.8026 80.4836 21.0156C80.3046 21.1932 80.1184 21.3778 79.875 21.4986C79.6674 21.6122 79.424 21.7045 79.1519 21.7685C78.9085 21.8253 78.6365 21.8892 78.3931 21.8892C78.121 21.9176 77.8776 21.9176 77.6342 21.9176H76.1451V24.5312C76.1451 24.6236 76.1164 24.7159 76.0878 24.7443C76.0305 24.8082 75.9661 24.8366 75.9088 24.8651C75.8158 24.8935 75.7513 24.9219 75.6296 24.9219C75.5437 24.9219 75.422 24.9219 75.3289 24.9219C75.2072 24.9219 75.1142 24.9219 74.9925 24.9219C74.9065 24.9219 74.8135 24.8935 74.7204 24.8651C74.6345 24.8366 74.5701 24.8082 74.5414 24.7443C74.5128 24.6875 74.477 24.6236 74.477 24.5312V17.4077V17.3438V17.3153C74.477 17.2869 74.477 17.2514 74.477 17.2514C74.477 17.1946 74.5128 17.1307 74.5414 17.0739C74.5701 17.0099 74.6345 16.9247 74.6918 16.8608C74.7562 16.804 74.8421 16.7401 74.9352 16.7116C75.0283 16.6832 75.1786 16.6548 75.3289 16.6548H77.5125V16.6193ZM92.9477 16.5909C93.3414 16.5909 93.7352 16.6193 94.043 16.6832C94.3724 16.7401 94.6444 16.8324 94.8878 16.9247C95.1312 17.0455 95.2816 17.1662 95.4319 17.3153C95.5536 17.4645 95.6181 17.642 95.6181 17.8267C95.6181 17.8835 95.6181 17.9759 95.5894 18.0327C95.5536 18.125 95.525 18.1889 95.4677 18.2457C95.4033 18.3097 95.346 18.3665 95.2816 18.3949C95.1957 18.4304 95.1026 18.4588 95.0095 18.4588C94.9165 18.4588 94.8306 18.4588 94.7375 18.4304C94.6444 18.3949 94.5871 18.3665 94.4941 18.3381C94.401 18.3097 94.3151 18.2741 94.222 18.2173C94.129 18.1889 94.0072 18.125 93.8855 18.0966C93.771 18.0682 93.6135 18.0327 93.4345 18.0043C93.2555 17.9759 93.0694 17.9759 92.826 17.9759H92.7401C92.3105 17.9759 91.9454 18.0327 91.6734 18.125C91.4013 18.2173 91.2223 18.3665 91.0648 18.5795C90.9145 18.7855 90.8286 19.0554 90.7928 19.3608C90.7355 19.6875 90.7355 20.0781 90.7355 20.5327V20.8949C90.7355 21.3423 90.7641 21.733 90.7928 22.0668C90.8572 22.4006 90.9431 22.6705 91.0648 22.848C91.2223 23.0611 91.4013 23.2102 91.6734 23.3026C91.9454 23.3878 92.2819 23.4517 92.7401 23.4517H92.826C93.0694 23.4517 93.2842 23.4517 93.4345 23.4233C93.6135 23.3878 93.771 23.3594 93.8855 23.331C94.0072 23.3026 94.129 23.267 94.222 23.2102C94.3151 23.1818 94.401 23.1179 94.4941 23.0895C94.5871 23.0611 94.6444 23.0327 94.7375 22.9972C94.8306 22.9688 94.8878 22.9688 95.0095 22.9688C95.1312 22.9688 95.2243 22.9972 95.2816 23.0327C95.3746 23.0611 95.4319 23.1179 95.4677 23.1818C95.525 23.2386 95.5536 23.3026 95.5894 23.3878C95.6181 23.4801 95.6181 23.544 95.6181 23.6009C95.6181 23.7784 95.5536 23.9631 95.4319 24.1122C95.3174 24.2614 95.1312 24.4105 94.8878 24.5028C94.6444 24.6236 94.3724 24.6875 94.043 24.7443C93.7066 24.8082 93.3414 24.8366 92.9477 24.8366H92.7401C92.1602 24.8366 91.6734 24.7727 91.2796 24.6875C90.8858 24.5952 90.5494 24.446 90.2773 24.2614C90.0053 24.0838 89.7976 23.8707 89.6115 23.6009C89.4612 23.3594 89.3108 23.0611 89.2464 22.7557C89.1605 22.4574 89.096 22.1236 89.0674 21.7685C89.0388 21.4062 89.0388 21.044 89.0388 20.6818V20.6534C89.0388 20.2912 89.0388 19.9006 89.0674 19.5668C89.096 19.2116 89.1605 18.8778 89.2464 18.5795C89.3395 18.2741 89.4612 17.9759 89.6115 17.7344C89.7618 17.4929 90.0053 17.2514 90.2773 17.0739C90.5494 16.8963 90.8858 16.7401 91.2796 16.6548C91.6734 16.5625 92.1602 16.4986 92.7401 16.4986H92.9477V16.5909ZM98.224 20.0497H99.9852H101.138C101.438 20.0497 101.653 20.0497 101.775 20.0497C101.925 20.0497 102.018 20.0497 102.047 20.0497V17.1307C102.047 17.0455 102.076 16.9815 102.14 16.8963C102.197 16.8324 102.29 16.7756 102.383 16.7116C102.469 16.6548 102.591 16.6193 102.713 16.5909C102.835 16.5625 102.956 16.5625 103.078 16.5625C103.321 16.5625 103.472 16.5909 103.593 16.6548C103.715 16.7116 103.744 16.8608 103.744 17.0739V24.4744C103.744 24.5668 103.715 24.652 103.686 24.6875C103.651 24.7443 103.622 24.7727 103.565 24.8082C103.5 24.8366 103.443 24.8651 103.35 24.8651C103.257 24.8651 103.171 24.8651 103.078 24.8651C102.956 24.8651 102.835 24.8651 102.713 24.8366C102.591 24.8082 102.498 24.8082 102.383 24.7443C102.29 24.7159 102.197 24.652 102.14 24.5952C102.076 24.5312 102.047 24.446 102.047 24.3537V21.3778H98.224V24.3537C98.224 24.446 98.1954 24.5312 98.1309 24.5952C98.0737 24.652 97.9806 24.7159 97.8947 24.7443C97.8016 24.7727 97.6799 24.8082 97.5582 24.8082C97.4365 24.8082 97.3434 24.8366 97.2217 24.8366C97.1 24.8366 97.0141 24.8366 96.921 24.8366C96.828 24.8366 96.7707 24.8082 96.7063 24.7727C96.649 24.7443 96.6204 24.7159 96.5846 24.652C96.5559 24.5952 96.5559 24.5312 96.5559 24.446V17.1023C96.5559 16.9247 96.6204 16.804 96.7063 16.7116C96.7993 16.6193 96.9783 16.5909 97.2217 16.5909C97.3434 16.5909 97.4651 16.5909 97.5868 16.6193C97.7085 16.6548 97.8016 16.6832 97.9233 16.7116C98.0092 16.7401 98.1023 16.804 98.1667 16.8963C98.224 16.9531 98.2526 17.0455 98.2526 17.1662V20.0497H98.224ZM107.08 21.9176H109.965L108.691 18.1889C108.655 18.125 108.655 18.0966 108.626 18.0327C108.598 18.0043 108.598 17.9759 108.569 17.9759H108.476C108.447 17.9759 108.412 18.0043 108.412 18.0327C108.383 18.0682 108.383 18.125 108.354 18.1889L107.08 21.9176ZM110.416 23.2386H106.622L106.321 24.0838C106.264 24.2898 106.171 24.446 106.106 24.5668C106.049 24.6875 105.956 24.7443 105.87 24.8082C105.777 24.8651 105.684 24.8935 105.562 24.8935C105.44 24.8935 105.319 24.9219 105.168 24.9219C105.047 24.9219 104.961 24.8935 104.868 24.8651C104.775 24.8366 104.682 24.7727 104.653 24.6875C104.596 24.5952 104.56 24.4744 104.56 24.3253C104.56 24.169 104.596 23.9915 104.682 23.7784L106.865 17.6136C106.958 17.3437 107.08 17.1307 107.202 16.9815C107.323 16.8324 107.445 16.7401 107.595 16.6832C107.717 16.6193 107.867 16.5909 108.018 16.5625C108.175 16.5625 108.326 16.5625 108.447 16.5625H108.655C108.812 16.5625 108.963 16.5625 109.084 16.5625C109.235 16.5625 109.357 16.6193 109.507 16.6832C109.629 16.7401 109.779 16.8608 109.901 16.9815C110.022 17.1307 110.144 17.3437 110.237 17.6136L112.421 23.7784C112.478 23.9915 112.542 24.1761 112.542 24.3253C112.542 24.4744 112.507 24.5952 112.449 24.6875C112.385 24.7727 112.328 24.8366 112.235 24.8651C112.141 24.8935 112.027 24.9219 111.934 24.9219C111.784 24.9219 111.662 24.9219 111.54 24.8935C111.418 24.8935 111.325 24.8366 111.232 24.8082C111.146 24.7443 111.053 24.652 110.996 24.5668C110.932 24.446 110.838 24.2898 110.781 24.0838L110.416 23.2386ZM118.148 18.0682V20.4759H116.666C116.301 20.4759 115.964 20.4403 115.75 20.3835C115.513 20.3196 115.327 20.2628 115.206 20.1705C115.084 20.0781 114.998 19.9645 114.934 19.8082C114.876 19.6591 114.84 19.4531 114.84 19.2685C114.84 19.027 114.876 18.8778 114.934 18.7287C114.998 18.5795 115.084 18.4588 115.206 18.3665C115.356 18.2741 115.513 18.1889 115.75 18.1534C115.993 18.0966 116.33 18.0682 116.695 18.0682H118.148ZM118.148 21.8892V24.5028C118.148 24.5952 118.177 24.6875 118.212 24.7443C118.27 24.8082 118.334 24.8366 118.391 24.8651C118.484 24.8935 118.542 24.9219 118.663 24.9219C118.757 24.9219 118.878 24.9219 118.971 24.9219C119.093 24.9219 119.179 24.9219 119.301 24.9219C119.394 24.9219 119.487 24.8935 119.573 24.8651C119.666 24.8366 119.723 24.8082 119.759 24.7443C119.816 24.6875 119.816 24.6236 119.816 24.5312V17.4077V17.3153C119.787 17.1946 119.787 17.1307 119.759 17.0455C119.723 16.9815 119.666 16.8963 119.608 16.8324C119.544 16.7756 119.451 16.7116 119.365 16.6832C119.272 16.6548 119.122 16.6193 118.971 16.6193H116.788C116.573 16.6193 116.423 16.6193 116.151 16.6193C115.964 16.6193 115.542 16.6832 115.27 16.7401C114.998 16.804 114.719 16.8963 114.483 17.0099C114.239 17.1307 113.996 17.2869 113.781 17.4929C113.573 17.706 113.416 17.9474 113.294 18.2173C113.172 18.5156 113.115 18.8494 113.115 19.2685C113.115 19.6307 113.144 19.929 113.237 20.1989C113.33 20.4759 113.452 20.6818 113.602 20.8665C113.752 21.044 113.931 21.1932 114.117 21.3423C114.325 21.4631 114.54 21.5838 114.755 21.6477L113.172 24.2898C113.115 24.3821 113.115 24.446 113.115 24.5312C113.115 24.5952 113.144 24.652 113.208 24.7159C113.265 24.7727 113.33 24.8082 113.416 24.8366C113.509 24.8651 113.602 24.8935 113.688 24.9219C113.781 24.9574 113.874 24.9574 113.967 24.9574C114.053 24.9574 114.117 24.9574 114.175 24.9574C114.325 24.9574 114.447 24.9219 114.604 24.8651C114.755 24.8082 114.84 24.7159 114.934 24.5952L116.48 21.9176H116.723H117.303H118.148V21.8892ZM83.1539 21.9176H86.0319L84.7576 18.1889C84.7289 18.125 84.7289 18.0966 84.7003 18.0327C84.6717 18.0043 84.6717 17.9759 84.643 17.9759H84.55C84.5213 17.9759 84.4855 18.0043 84.4855 18.0327C84.4569 18.0682 84.4569 18.125 84.4283 18.1889L83.1539 21.9176ZM86.4901 23.2386H82.6957L82.3951 24.0838C82.3306 24.2898 82.2447 24.446 82.1803 24.5668C82.123 24.6875 82.0299 24.7443 81.9369 24.8082C81.851 24.8651 81.7579 24.8935 81.6362 24.8935C81.5145 24.8935 81.3928 24.9219 81.2424 24.9219C81.1207 24.9219 81.0276 24.8935 80.9417 24.8651C80.8487 24.8366 80.7556 24.7727 80.727 24.6875C80.6697 24.5952 80.6339 24.4744 80.6339 24.3253C80.6339 24.169 80.6697 23.9915 80.727 23.7784L82.9105 17.6136C83.0036 17.3437 83.1253 17.1307 83.247 16.9815C83.3687 16.8324 83.4904 16.7401 83.6407 16.6832C83.7625 16.6193 83.9128 16.5909 84.0631 16.5625C84.2135 16.5625 84.3638 16.5625 84.4855 16.5625H84.7003C84.8506 16.5625 85.001 16.5625 85.1227 16.5625C85.273 16.5625 85.3948 16.6193 85.5523 16.6832C85.674 16.7401 85.8243 16.8608 85.946 16.9815C86.0677 17.1307 86.1894 17.3437 86.2753 17.6136L88.4589 23.7784C88.5233 23.9915 88.5806 24.1761 88.5806 24.3253C88.5806 24.4744 88.5519 24.5952 88.4875 24.6875C88.4302 24.7727 88.373 24.8366 88.2799 24.8651C88.1868 24.8935 88.0651 24.9219 87.9721 24.9219C87.8217 24.9219 87.7 24.9219 87.5783 24.8935C87.4566 24.8935 87.3707 24.8366 87.2776 24.8082C87.1845 24.7443 87.0986 24.652 87.0342 24.5668C86.9769 24.446 86.8839 24.2898 86.8194 24.0838L86.4901 23.2386ZM68.1698 24.5312C68.1698 24.6236 68.1411 24.7159 68.0838 24.7727C68.0194 24.8366 67.9335 24.8935 67.8404 24.9219C67.7474 24.9574 67.6257 24.9858 67.504 24.9858C67.3822 24.9858 67.2963 25.0142 67.1746 25.0142C67.0529 25.0142 66.9599 25.0142 66.8668 25.0142C66.7809 25.0142 66.7164 24.9858 66.6592 24.9574C66.5947 24.9219 66.5661 24.8935 66.5375 24.8366C66.5017 24.7727 66.5017 24.7159 66.5017 24.6236V17.1662C66.5017 16.9815 66.5661 16.8608 66.6592 16.7756C66.7809 16.6832 66.9312 16.6548 67.1746 16.6548C67.2963 16.6548 67.418 16.6548 67.5326 16.6832C67.6543 16.7116 67.7474 16.7401 67.8691 16.7756C67.9621 16.804 68.048 16.8608 68.1125 16.9531C68.1698 17.0099 68.2055 17.1023 68.2055 17.223V19.9645C68.2055 19.9645 68.2055 20.0497 68.2342 20.0781C68.2628 20.1136 68.2915 20.1136 68.3273 20.1136C68.3845 20.1136 68.4132 20.1136 68.449 20.0781C68.4776 20.0497 68.5349 20.0213 68.5349 20.0213L71.6634 17.0739C71.7493 16.9815 71.8424 16.9247 71.9355 16.8608C72.0214 16.804 72.0858 16.7756 72.1789 16.7401C72.2648 16.7116 72.3579 16.6832 72.4509 16.6832C72.5368 16.6832 72.6299 16.6832 72.723 16.6832C72.7803 16.6832 72.8733 16.6832 72.9306 16.7116C72.995 16.7401 73.0881 16.7756 73.1454 16.8324C73.2098 16.8892 73.2671 16.9531 73.2957 17.0099C73.3244 17.1023 73.3602 17.1946 73.3602 17.2869C73.3602 17.3438 73.3602 17.4077 73.3244 17.4645C73.3244 17.5213 73.2957 17.5852 73.2385 17.6776C73.2098 17.7344 73.1454 17.8267 73.0523 17.919C72.995 18.0043 72.8733 18.0966 72.7516 18.2173L70.203 20.5895C70.1457 20.6534 70.1099 20.6818 70.1099 20.7457C70.1099 20.7741 70.1099 20.8026 70.1099 20.831C70.1099 20.8665 70.1099 20.8949 70.1099 20.9233C70.1099 20.9517 70.1457 21.0156 70.203 21.0724L72.7516 23.4517C72.8733 23.5724 72.9664 23.6577 73.0523 23.75C73.1168 23.8423 73.174 23.9347 73.2385 23.9915C73.2671 24.0554 73.2957 24.1406 73.3244 24.2045C73.3244 24.2614 73.3602 24.3253 73.3602 24.3821C73.3602 24.5028 73.3244 24.5952 73.2957 24.652C73.2671 24.7443 73.2098 24.8082 73.1454 24.8366C73.0881 24.8935 73.0237 24.9219 72.9664 24.9574C72.902 24.9858 72.8089 25.0142 72.723 25.0142C72.6299 25.0142 72.5082 25.0142 72.4509 25.0142C72.3579 25.0142 72.2648 24.9858 72.2075 24.9574C72.1145 24.9219 72.0572 24.8935 71.9641 24.8366C71.871 24.7727 71.778 24.7159 71.6921 24.6236C71.6921 24.6236 68.7496 21.8537 68.5635 21.6477C68.5349 21.6122 68.5062 21.5838 68.4776 21.5838C68.4132 21.5554 68.3845 21.5554 68.3559 21.5554C68.3273 21.5554 68.2915 21.5554 68.2628 21.5838C68.2342 21.6122 68.2342 21.7045 68.2342 21.7045V24.5312H68.1698ZM124.004 16.8963C124.004 16.7401 124.126 16.6193 124.276 16.6193H125.121C125.279 16.6193 125.4 16.7401 125.4 16.8963V34.794C125.4 34.9432 125.279 35.0639 125.121 35.0639H124.276C124.126 35.0639 124.004 34.9432 124.004 34.794V16.8963Z" fill="#DE210B"/>
</svg>
